<svg width="92" height="26" viewBox="0 0 92 26" fill="none" xmlns="http://www.w3.org/2000/svg">
<path d="M0.407106 25L2.71386 1.11823H10.8147L13.0807 25H8.56218L8.22295 21.1463H5.34628L5.04776 25H0.407106ZM5.68551 17.3334H7.85658L6.81175 5.18898H6.59465L5.68551 17.3334ZM14.5462 25V1.11823H21.8735C23.0948 1.11823 24.0175 1.39866 24.6416 1.95952C25.2658 2.51133 25.6819 3.2893 25.89 4.29342C26.1071 5.28849 26.2157 6.45996 26.2157 7.80783C26.2157 9.11047 26.0483 10.1508 25.7136 10.9287C25.3879 11.7067 24.7683 12.2449 23.8546 12.5435C24.6055 12.6973 25.1301 13.0727 25.4287 13.6697C25.7362 14.2577 25.89 15.0221 25.89 15.9629V25H21.1815V15.6508C21.1815 14.9543 21.0368 14.5246 20.7473 14.3617C20.4669 14.1899 20.01 14.1039 19.3768 14.1039V25H14.5462ZM19.4039 9.96533H20.5573C21.2177 9.96533 21.5479 9.24616 21.5479 7.80783C21.5479 6.87608 21.4755 6.26547 21.3308 5.97599C21.186 5.68652 20.9146 5.54178 20.5166 5.54178H19.4039V9.96533ZM29.8386 25V5.70461H27.0027V1.11823H37.4509V5.70461H34.615V25H29.8386ZM38.7807 25V1.11823H48.3334V5.73175H43.6385V10.386H48.1434V14.8774H43.6385V20.3457H48.6455V25H38.7807ZM50.2331 25V1.11823H57.5605C58.7817 1.11823 59.7044 1.39866 60.3286 1.95952C60.9527 2.51133 61.3689 3.2893 61.5769 4.29342C61.794 5.28849 61.9026 6.45996 61.9026 7.80783C61.9026 9.11047 61.7352 10.1508 61.4005 10.9287C61.0749 11.7067 60.4552 12.2449 59.5416 12.5435C60.2924 12.6973 60.8171 13.0727 61.1156 13.6697C61.4231 14.2577 61.5769 15.0221 61.5769 15.9629V25H56.8684V15.6508C56.8684 14.9543 56.7237 14.5246 56.4342 14.3617C56.1538 14.1899 55.697 14.1039 55.0637 14.1039V25H50.2331ZM55.0909 9.96533H56.2442C56.9046 9.96533 57.2348 9.24616 57.2348 7.80783C57.2348 6.87608 57.1624 6.26547 57.0177 5.97599C56.8729 5.68652 56.6016 5.54178 56.2035 5.54178H55.0909V9.96533ZM63.2595 25V1.11823H67.873V25H63.2595ZM75.4718 25.2171C73.563 25.2171 72.1021 24.6426 71.0889 23.4938C70.0848 22.3359 69.5827 20.6669 69.5827 18.4868V7.14294C69.5827 5.09852 70.0803 3.54711 71.0753 2.48872C72.0795 1.43032 73.5449 0.901122 75.4718 0.901122C77.3986 0.901122 78.8595 1.43032 79.8546 2.48872C80.8587 3.54711 81.3608 5.09852 81.3608 7.14294V18.4868C81.3608 20.6669 80.8542 22.3359 79.841 23.4938C78.8369 24.6426 77.3805 25.2171 75.4718 25.2171ZM75.5125 20.8207C76.2362 20.8207 76.598 20.1196 76.598 18.7174V7.06153C76.598 5.88553 76.2452 5.29753 75.5396 5.29753C74.7435 5.29753 74.3455 5.8991 74.3455 7.10223V18.7446C74.3455 19.4864 74.436 20.0201 74.6169 20.3457C74.7978 20.6624 75.0963 20.8207 75.5125 20.8207Z" fill="black"/>
<path d="M87.9668 1C88.6422 1 89.2457 1.14948 89.7772 1.44844C90.3197 1.74741 90.7405 2.16817 91.0395 2.71073C91.3384 3.24221 91.4879 3.85121 91.4879 4.53772C91.4879 5.21315 91.3384 5.81661 91.0395 6.3481C90.7405 6.87958 90.3197 7.30035 89.7772 7.61038C89.2457 7.90934 88.6422 8.05882 87.9668 8.05882C87.2914 8.05882 86.6824 7.90934 86.1398 7.61038C85.6083 7.30035 85.1876 6.87958 84.8775 6.3481C84.5786 5.81661 84.4291 5.21315 84.4291 4.53772C84.4291 3.85121 84.5786 3.24221 84.8775 2.71073C85.1876 2.16817 85.6083 1.74741 86.1398 1.44844C86.6824 1.14948 87.2914 1 87.9668 1ZM87.9668 7.21176C88.764 7.21176 89.4007 6.96817 89.8768 6.48097C90.364 5.9827 90.6076 5.33495 90.6076 4.53772C90.6076 3.72941 90.364 3.08166 89.8768 2.59446C89.4007 2.09619 88.764 1.84706 87.9668 1.84706C87.1696 1.84706 86.5329 2.09619 86.0568 2.59446C85.5806 3.08166 85.3426 3.72941 85.3426 4.53772C85.3426 5.34602 85.5806 5.99377 86.0568 6.48097C86.5329 6.96817 87.1696 7.21176 87.9668 7.21176ZM89.528 3.87336C89.528 4.11696 89.4671 4.32734 89.3453 4.5045C89.2346 4.68166 89.0741 4.81453 88.8637 4.90311L89.7273 6.26505H88.4318L87.7177 5.01938H87.618V6.26505H86.5052V2.71073H88.2491C88.6367 2.71073 88.9467 2.82145 89.1793 3.04291C89.4118 3.25329 89.528 3.5301 89.528 3.87336ZM87.6014 4.18893H88.1329C88.2104 4.18893 88.2768 4.16678 88.3322 4.12249C88.3876 4.0782 88.4152 4.01176 88.4152 3.92318C88.4152 3.75709 88.3211 3.67405 88.1329 3.67405H87.6014V4.18893Z" fill="black"/>
</svg>
